# xmcd CD database file
#
# Track frame offsets:
#	150
#	17559
#	32650
#	51035
#	71287
#	89130
#	105433
#	123885
#	143610
#	159024
#
# Disc length: 2337 seconds
#
# Revision: 1
# Processed by: cddbd v1.5.2PL0 Copyright (c) Steve Scherf et al.
# Submitted via: CDex 1.51
#
DISCID=70091f0a
DTITLE=Keebo - First Strike
DYEAR=2010
DGENRE=Country
TTITLE0=Night Colour
TTITLE1=Moonlight
TTITLE2=Simply You
TTITLE3=Wonder of your Smile
TTITLE4=Otra Cancion de Amor
TTITLE5=Summer
TTITLE6=Demenz
TTITLE7=For You
TTITLE8=Träumer
TTITLE9=Dead End
EXTD=YEAR: 2010
EXTT0=
EXTT1=
EXTT2=
EXTT3=
EXTT4=
EXTT5=
EXTT6=
EXTT7=
EXTT8=
EXTT9=
PLAYORDER=
